<svg width="25" height="25" viewBox="0 0 25 25" fill="none" xmlns="http://www.w3.org/2000/svg">
<path d="M23.25 7.46872C23.1239 6.97527 22.9293 6.50191 22.6718 6.06247C22.4245 5.60533 22.1083 5.18899 21.7343 4.82809C21.1921 4.28768 20.55 3.85783 19.8437 3.56247C18.4221 2.97901 16.8278 2.97901 15.4062 3.56247C14.7386 3.84503 14.1253 4.24156 13.5937 4.73434L13.5156 4.82809L12.5 5.84372L11.4843 4.82809L11.4062 4.73434C10.8746 4.24156 10.2613 3.84503 9.5937 3.56247C8.17207 2.97901 6.57783 2.97901 5.1562 3.56247C4.44992 3.85783 3.80781 4.28768 3.26558 4.82809C2.52396 5.5497 1.99897 6.46437 1.74995 7.46872C1.61747 7.97875 1.55441 8.50432 1.56245 9.03122C1.56245 9.52653 1.62495 10.0203 1.74995 10.5C1.88094 10.9844 2.0698 11.4513 2.31245 11.8906C2.57451 12.3422 2.89498 12.7572 3.26558 13.125L12.5 22.3593L21.7343 13.125C22.1046 12.7609 22.4218 12.3437 22.6718 11.8906C23.1793 11.0236 23.4438 10.0358 23.4375 9.03122C23.4456 8.50432 23.3825 7.97874 23.25 7.46872ZM21.6875 10.0156C21.5003 10.7295 21.1285 11.3816 20.6093 11.9062L12.4687 20.0312L4.32808 11.9062C4.0628 11.6391 3.83185 11.3399 3.64058 11.0156C3.46059 10.6948 3.31899 10.3539 3.2187 9.99997C3.13864 9.64609 3.09673 9.28465 3.0937 8.92184C3.09582 8.54866 3.13772 8.17677 3.2187 7.81247C3.31605 7.45753 3.45779 7.11629 3.64058 6.79684C3.82808 6.46872 4.05933 6.17184 4.32808 5.90622C4.72948 5.51019 5.20104 5.19229 5.7187 4.96872C6.76185 4.55141 7.92555 4.55141 8.9687 4.96872C9.48433 5.18278 9.94995 5.49684 10.3437 5.89059L12.4687 8.03122L14.5937 5.89059C14.9872 5.49615 15.4544 5.18291 15.9687 4.96872C17.0118 4.55141 18.1756 4.55141 19.2187 4.96872C19.7359 5.19216 20.2078 5.51091 20.6093 5.90622C20.8812 6.16403 21.1093 6.46403 21.2812 6.79684C21.6431 7.43507 21.8316 8.15691 21.8281 8.89059C21.8493 9.26813 21.8178 9.64678 21.7343 10.0156H21.6875Z" fill="#574AE8"/>
</svg>
